<?xml version="1.0" encoding="UTF-8"?>
<!--
  TrustKYC Logo Animation — Storyboard-accurate loop
  ===================================================
  Canvas matches lockup proportions: 265.01 × 98.09 (padded)
  Geometry (from lockup.svg):
    ICON  : x[0,61.4]   y[1.7,63.1]
    TRUST : x[69,264.9] y[0,63.9]
    KYC   : x[202.2,264.9] y[72.8,98]
  Icon centered start: left-edge x = 101.8 (slides 101.8 left to reach lockup)

  Timeline (total = 5s, snappy):
    0.00–1.10s (0–22%)  : icon stroke draws in (centered)
    1.10–1.60s (22–32%) : stroke→fill cross-fade (centered)
    1.60–1.70s (32–34%) : tiny hold
    1.70–2.70s (34–54%) : icon slides LEFT, TRUST revealed L→R behind it
    2.70–3.20s (54–64%) : KYC slides DOWN into place
    3.20–3.85s (64–77%) : FINAL FRAME hold
    3.85–4.35s (77–87%) : KYC slides back UP (reverse)
    4.35–4.85s (87–97%) : icon slides back to center, TRUST hidden again
    4.85–5.00s (97–100%): filled icon fades out → loop
-->
<svg xmlns="http://www.w3.org/2000/svg"
     viewBox="-6 -6 277 110"
     width="831" height="330"
     style="background:transparent">
  <defs>
    <style>
      :root { --brand: #000000; }

      /* ============ ICON ============ */
      /* Continuous motion: centered during draw/fill, slides left to lockup,
         brief settle, snaps back to center, fades. The reveal clip tracks the
         icon (same keyframes) so the logotype is always masked behind it —
         letting the return be fast without exposing the wordmark. */
      .icon-grp { animation: icon-move 5s cubic-bezier(.5,0,.5,1) infinite; }
      @keyframes icon-move {
        0%,25%   { transform: translateX(101.8px); } /* centered through fill */
        44%      { transform: translateX(0); }        /* arrives at lockup */
        80%      { transform: translateX(0); }         /* lockup window */
        92%,100% { transform: translateX(101.8px); }   /* fast snap back to center */
      }

      .icon-outline {
        fill:none; stroke:var(--brand); stroke-width:1.6; stroke-miterlimit:10;
        stroke-dasharray:380; stroke-dashoffset:380;
        animation: draw 5s cubic-bezier(.65,0,.35,1) infinite;
      }
      @keyframes draw {
        0%   { stroke-dashoffset:380; opacity:1; }
        22%  { stroke-dashoffset:0;   opacity:1; }  /* drawn */
        28%  { stroke-dashoffset:0;   opacity:0; }  /* fades immediately into fill */
        100% { stroke-dashoffset:0;   opacity:0; }
      }

      .icon-fill {
        fill:var(--brand); opacity:0;
        animation: fillop 5s cubic-bezier(.65,0,.35,1) infinite;
      }
      @keyframes fillop {
        0%,12% { opacity:0; }   /* hidden until stroke completes */
        25%    { opacity:1; }   /* cross-fades in seamlessly, no pause */
        92%    { opacity:1; }   /* hold through sequence + snap back to center */
        100%   { opacity:0; }   /* fade out once centered */
      }

      /* ============ TRUST ============ */
      /* TRUST slides out from behind the icon as the icon slides left. Its
         motion mirrors the icon's keyTimes so they move together; the tracking
         clip keeps everything left of the icon edge hidden throughout. */
      .trust-slide { animation: trust-slide 5s cubic-bezier(.5,0,.5,1) infinite; }
      @keyframes trust-slide {
        0%,25%   { transform: translateX(-102px); } /* tucked behind centered icon */
        44%      { transform: translateX(0); }        /* lockup */
        80%      { transform: translateX(0); }         /* lockup window */
        92%,100% { transform: translateX(-102px); }    /* retreats with the icon */
      }

      /* ============ KYC ============ */
      /* Drops down from behind TRUST right as it lands; retracts up first on
         loop. Timed within the lockup window for continuous motion. */
      .kyc-grp { animation: kyc-move 5s cubic-bezier(.5,0,.5,1) infinite; }
      @keyframes kyc-move {
        0%,36%   { transform: translateY(-26px); opacity:0; } /* tucked up behind Trust */
        46%      { transform: translateY(0);     opacity:1; } /* drops in as Trust lands */
        70%      { transform: translateY(0);     opacity:1; } /* lockup window */
        80%,100% { transform: translateY(-26px); opacity:0; } /* retract up first */
      }
    </style>

    <!-- Reveal clip whose LEFT edge tracks the icon's right edge at all times
         (icon_tx + ~64). Because it uses the same keyTimes/easing as the icon
         move, the logotype is always masked right at the icon's edge — so the
         icon can snap back fast on loop without ever exposing the wordmark. -->
    <clipPath id="trustClip">
      <rect y="-6" width="260" height="76">
        <animate attributeName="x"
          dur="5s" repeatCount="indefinite"
          keyTimes="0;0.28;0.44;0.80;0.92;1"
          values="166;166;64;64;166;166"
          calcMode="spline"
          keySplines=".5 0 .5 1;.5 0 .5 1;.5 0 .5 1;.5 0 .5 1;.5 0 .5 1"/>
      </rect>
    </clipPath>
    <!-- Clip KYC vertical travel so it appears to emerge from under TRUST -->
    <clipPath id="kycClip">
      <rect x="200" y="66" width="70" height="38"/>
    </clipPath>
  </defs>

  <!-- ===== TRUST (slides out from behind icon, revealed by tracking clip) ===== -->
  <g clip-path="url(#trustClip)">
    <g class="trust-slide" fill="#000000">
    <path d="M99.3,63.17h-12.07V14.77h-18.19V2.66h48.4v12.11h-18.15v48.4Z"/>
    <path d="M121.97,63.17h-11.52v-27.28c0-1.61.27-3.21.82-4.73.65-1.78,1.71-3.82,3.44-5.72.77-.85,1.57-1.54,2.32-2.11.61-.56,1.44-1.24,2.49-1.93,1.38-.91,2.88-1.65,4.49-2.21,2.28-.8,4.7-1.13,7.11-1.13h9.75v11.48h-10.17c-1.21,0-2.35.23-3.42.68-1.07.45-2,1.07-2.78,1.86-.79.79-1.41,1.72-1.86,2.79-.45,1.07-.68,2.21-.68,3.42v24.9Z"/>
    <path d="M174.22,17.98h-.04v24.98c0,1.21-.23,2.38-.68,3.52s-1.07,2.16-1.86,3.06c-.78.9-1.71,1.63-2.76,2.18-.85.43-1.74.7-2.67.79-.22.02-.46.03-.69.03h-.04c-.23,0-.46-.01-.68-.03-.93-.09-1.82-.36-2.67-.79-1.06-.55-1.98-1.28-2.77-2.18-.78-.9-1.4-1.92-1.85-3.06s-.68-2.31-.68-3.52v-24.98h-11.52v24.98c0,3.23.53,6.15,1.58,8.76,1.06,2.6,2.51,4.81,4.35,6.62.07.07.13.13.2.19,1.79,1.73,3.88,3.06,6.24,4.01,2.09.84,4.32,1.31,6.66,1.43.03,0,.05,0,.08,0,.33.03.67.04,1,.04h.16c.31,0,.62-.01.93-.04.05,0,.1-.01.15-.01.02,0,.05,0,.07,0,2.32-.13,4.52-.59,6.6-1.42,2.36-.94,4.43-2.28,6.23-4.01.07-.06.14-.12.21-.19,1.84-1.81,3.29-4.02,4.34-6.62,1.06-2.61,1.59-5.53,1.59-8.76v-24.98h-11.48Z"/>
    <path d="M219.28,63.17h-26.33v-11.48h26.33c.79,0,1.46-.28,2.03-.84.56-.56.84-1.24.84-2.03s-.28-1.35-.84-1.6c-.56-.25-1.24-.38-2.03-.38h-11.98c-2,0-3.87-.38-5.61-1.14-1.74-.76-3.26-1.79-4.56-3.1-1.29-1.31-2.31-2.83-3.06-4.58-.75-1.74-1.12-3.61-1.12-5.61s.37-3.87,1.12-5.61c.75-1.74,1.77-3.26,3.06-4.56s2.81-2.31,4.56-3.06c1.74-.75,3.61-1.12,5.61-1.12h23.34v11.48h-23.34c-.79,0-1.46.28-2.03.84s-.84,1.24-.84,2.03.28,1.51.84,2.09c.56.58,1.24.87,2.03.87h11.98c1.97,0,3.83.33,5.57.99,1.74.66,3.26,1.58,4.56,2.76,1.29,1.18,2.32,2.6,3.08,4.26.76,1.66,1.14,3.47,1.14,5.44s-.38,3.86-1.14,5.59c-.76,1.73-1.79,3.25-3.08,4.56-1.29,1.31-2.81,2.34-4.56,3.08-1.74.75-3.6,1.12-5.57,1.12Z"/>
    <path d="M256.28,63.17c-2.79,0-5.4-.53-7.85-1.58-2.45-1.05-4.59-2.5-6.44-4.35-1.84-1.84-3.29-3.99-4.35-6.44-1.05-2.45-1.58-5.06-1.58-7.85V0h11.48v18.06h17.47v11.48h-17.47v13.42c0,1.21.23,2.34.68,3.4.45,1.05,1.07,1.98,1.86,2.76.79.79,1.72,1.41,2.78,1.88,1.07.46,2.21.7,3.42.7h8.73v11.48h-8.73Z"/>
    </g>
  </g>

  <!-- ===== KYC (slides down from under TRUST) ===== -->
  <g clip-path="url(#kycClip)">
    <g class="kyc-grp" fill="#000000">
      <path d="M207.04,97.57h-4.88v-24.39h4.88v12.2l9.08-12.2h5.55l-7.71,10.29,7.71,14.1h-5.55l-5.36-9.87-3.73,4.98v4.88Z"/>
      <path d="M234.91,97.57h-4.86v-7.64c-1.08-.27-2.07-.71-2.97-1.31-.9-.6-1.68-1.32-2.32-2.15-.65-.83-1.15-1.76-1.51-2.77-.36-1.01-.54-2.08-.54-3.21v-7.31h4.88v7.31c0,.67.13,1.3.38,1.9.26.6.6,1.11,1.05,1.56s.96.79,1.56,1.05c.6.26,1.23.38,1.9.38s1.3-.13,1.9-.38c.6-.26,1.11-.6,1.56-1.05s.79-.96,1.05-1.56.38-1.23.38-1.9v-7.31h4.86v7.31c0,1.12-.18,2.19-.54,3.21-.36,1.02-.86,1.94-1.51,2.77-.65.83-1.42,1.55-2.31,2.15-.9.6-1.88,1.04-2.96,1.31v7.64Z"/>
      <path d="M265.01,95.07c-1.13.98-2.4,1.72-3.81,2.25-1.41.52-2.86.78-4.37.78-1.16,0-2.27-.15-3.34-.45-1.07-.3-2.08-.73-3.01-1.28-.94-.55-1.79-1.21-2.56-1.98-.77-.77-1.43-1.62-1.98-2.56-.55-.94-.98-1.94-1.28-3.01-.3-1.07-.45-2.19-.45-3.34s.15-2.27.45-3.35c.3-1.08.73-2.08,1.28-3.02.55-.94,1.21-1.79,1.98-2.56.77-.77,1.62-1.43,2.56-1.98.94-.55,1.94-.98,3.01-1.28,1.07-.3,2.19-.45,3.34-.45,1.51,0,2.97.26,4.37.77,1.41.52,2.68,1.27,3.81,2.25l-2.59,4.25c-.71-.77-1.56-1.36-2.53-1.78-.98-.41-2-.62-3.06-.62s-2.09.2-3.03.61c-.94.41-1.76.96-2.47,1.66-.7.7-1.26,1.52-1.67,2.47-.41.95-.61,1.95-.61,3.02s.2,2.07.61,3c.41.94.96,1.76,1.67,2.46.7.7,1.52,1.26,2.47,1.67.94.41,1.95.61,3.03.61s2.09-.21,3.06-.62c.98-.41,1.82-1.01,2.53-1.78l2.59,4.25Z"/>
    </g>
  </g>

  <!-- ===== ICON (on top, slides between center and lockup) ===== -->
  <g class="icon-grp">
    <path class="icon-fill"
      d="M48.43,1.68H13.06C5.85,1.68,0,7.53,0,14.74v35.37c0,7.21,5.85,13.06,13.06,13.06h35.37c7.21,0,13.06-5.85,13.06-13.06V14.74c0-7.21-5.85-13.06-13.06-13.06ZM47.02,31.78c-7.8,2.6-13.8,9.18-15.59,17.32h-12.58c.94-6.7,3.75-12.81,7.86-17.8h-10.64v-12.34h12.98v9.76c4.84-4.83,11.04-8.3,17.98-9.76v12.82Z"/>
    <path class="icon-outline"
      d="M48.43,1.68H13.06C5.85,1.68,0,7.53,0,14.74v35.37c0,7.21,5.85,13.06,13.06,13.06h35.37c7.21,0,13.06-5.85,13.06-13.06V14.74c0-7.21-5.85-13.06-13.06-13.06ZM47.02,31.78c-7.8,2.6-13.8,9.18-15.59,17.32h-12.58c.94-6.7,3.75-12.81,7.86-17.8h-10.64v-12.34h12.98v9.76c4.84-4.83,11.04-8.3,17.98-9.76v12.82Z"/>
  </g>
</svg>
